<svg id="SvgjsSvg1001" width="288" height="288" xmlns="http://www.w3.org/2000/svg" version="1.1" xmlns:xlink="http://www.w3.org/1999/xlink" xmlns:svgjs="http://svgjs.com/svgjs"><path id="SvgjsPath1015" d="M 144,0 C 5,0 0,5 0,144 0,283 5,288 144,288 283,288 288,283 288,144 288,5 283,0 144,0 Z" fill="#184d47" transform="matrix(0.7916,0,0,0.7916,30.009600000000006,30.009600000000006)"></path><defs id="SvgjsDefs1002"></defs><g id="SvgjsG1008" transform="matrix(0.67,0,0,0.67,47.51914901733397,47.52000125885009)"><svg xmlns="http://www.w3.org/2000/svg" aria-hidden="true" class="svg-inline--fa fa-opencart fa-w-20" data-icon="opencart" data-prefix="fab" viewBox="0 0 640 512" width="288" height="288"><path fill="#effbf7" d="M423.3 440.7c0 25.3-20.3 45.6-45.6 45.6s-45.8-20.3-45.8-45.6 20.6-45.8 45.8-45.8c25.4 0 45.6 20.5 45.6 45.8zm-253.9-45.8c-25.3 0-45.6 20.6-45.6 45.8s20.3 45.6 45.6 45.6 45.8-20.3 45.8-45.6-20.5-45.8-45.8-45.8zm291.7-270C158.9 124.9 81.9 112.1 0 25.7c34.4 51.7 53.3 148.9 373.1 144.2 333.3-5 130 86.1 70.8 188.9 186.7-166.7 319.4-233.9 17.2-233.9z" class="colorcurrentColor svgShape"></path></svg></g></svg>